<?xml version="1.0" encoding="utf-8"?>
<!-- Uploaded to: SVG Repo, www.svgrepo.com, Generator: SVG Repo Mixer Tools -->
<svg width="24px" height="24px" viewBox="0 0 1024 1024" class="icon"  version="1.1" xmlns="http://www.w3.org/2000/svg"><path d="M547.8 408.1H291.9v-92.8c0-15.2 12.4-27.6 27.6-27.6h200.7c15.2 0 27.6 12.4 27.6 27.6v92.8z" fill="#D5D9CF" /><path d="M553.3 413.6H286.4v-98.3c0-18.3 14.9-33.1 33.1-33.1h200.7c18.3 0 33.1 14.9 33.1 33.1v98.3z m-255.9-11h244.9v-87.3c0-12.2-9.9-22.1-22.1-22.1H319.5c-12.2 0-22.1 9.9-22.1 22.1v87.3z" fill="#333336" /><path d="M558.7 446.2H281c-6.6 0-12-5.4-12-12v-14.1c0-6.6 5.4-12 12-12h277.7c6.6 0 12 5.4 12 12v14.1c0 6.6-5.4 12-12 12z" fill="#D5D9CF" /><path d="M558.7 451.7H281c-9.6 0-17.5-7.9-17.5-17.5v-14.1c0-9.6 7.9-17.5 17.5-17.5h277.7c9.6 0 17.5 7.9 17.5 17.5v14.1c0 9.7-7.8 17.5-17.5 17.5zM281 413.6c-3.6 0-6.5 2.9-6.5 6.5v14.1c0 3.6 2.9 6.5 6.5 6.5h277.7c3.6 0 6.5-2.9 6.5-6.5v-14.1c0-3.6-2.9-6.5-6.5-6.5H281z" fill="#333336" /><path d="M608.2 488.4c-20.7-4.2-41.2-8.2-78.7-11v-31.2H310.2v31.7c-36.8 3-57.6 7.4-78.9 11.8-30.4 6.2-52.1 32.9-52.1 63.9v232.8c0 11.9 9.7 21.6 21.6 21.6h438.1c11.9 0 21.6-9.7 21.6-21.6V552.3c0-31.1-21.9-57.8-52.3-63.9z" fill="#FFD632" /><path d="M638.9 813.5H200.8c-14.9 0-27.1-12.1-27.1-27.1V553.5c0-33.4 23.8-62.6 56.5-69.3l1.8-0.4c19.5-4 39.6-8.1 72.7-11.1v-32.1H535v31.6c35 2.8 55 6.8 74.3 10.7 32.9 6.6 56.7 35.7 56.7 69.3v234.1c0 15-12.2 27.2-27.1 27.2zM315.7 451.7V483l-5.1 0.4c-35.4 2.9-56.3 7.2-76.4 11.3l-1.8 0.4c-27.7 5.7-47.7 30.3-47.7 58.5v232.8c0 8.9 7.2 16.1 16.1 16.1h438.1c8.9 0 16.1-7.2 16.1-16.1V552.3c0-28.3-20.1-53-47.9-58.5-19.9-4-40.5-8.1-78-10.9l-5.1-0.4v-30.8H315.7z" fill="#333336" /><path d="M661.4 830.7h-483c-6.5 0-11.7-5.2-11.7-11.7v-36.7c0-6.5 5.2-11.7 11.7-11.7h483c6.5 0 11.7 5.2 11.7 11.7V819c0 6.5-5.3 11.7-11.7 11.7z" fill="#D8A128" /><path d="M661.4 836.2h-483c-9.5 0-17.2-7.7-17.2-17.2v-36.7c0-9.5 7.7-17.2 17.2-17.2h483c9.5 0 17.2 7.7 17.2 17.2V819c0 9.5-7.7 17.2-17.2 17.2z m-483.1-60.1c-3.4 0-6.2 2.8-6.2 6.2V819c0 3.4 2.8 6.2 6.2 6.2h483c3.4 0 6.2-2.8 6.2-6.2v-36.7c0-3.4-2.8-6.2-6.2-6.2h-483z" fill="#333336" /><path d="M179.2 588.3h481.3v110.9H179.2z" fill="#68A240" /><path d="M666 704.7H173.7V582.8H666v121.9z m-481.3-11H655v-99.9H184.7v99.9z" fill="#333336" /><path d="M826.5 703.2l6.5 127c0 2.1-1.3 3.8-2.6 5.4-16.2 20.7-37.5 55.4-45.9 67-3.2 4.5-9.5 5-12.3 0.2-8.5-14.7-30.7-53-45.8-67.3-1.4-1.3-2.2-3.2-2.2-5.1l6.5-127.3c0-3.9 3.1-7 7-7h81.7c4 0.1 7.1 3.3 7.1 7.1z" fill="#D5D9CF" /><path d="M777.9 911.8h-0.7c-4.1-0.2-7.7-2.4-9.8-6.1-7.5-12.9-30.1-52.1-44.8-66-2.5-2.4-3.9-5.7-3.9-9.1v-0.3l6.4-127.2c0.1-6.8 5.7-12.4 12.5-12.4h81.7c6.9 0 12.4 5.5 12.5 12.4l6.5 127.2c0 4-2.2 6.9-3.7 8.8-10.3 13.2-22.7 32-32.6 47.2-5.4 8.3-10.1 15.4-13.2 19.6-2.5 3.7-6.6 5.9-10.9 5.9z m-48.1-81.1c0 0.4 0.2 0.7 0.5 1 14.2 13.4 33.5 45.5 46.7 68.5 0.3 0.6 0.6 0.6 0.9 0.6 0.6 0 1.5-0.4 2.2-1.3 2.9-4 7.5-11.1 12.9-19.2 10-15.3 22.6-34.4 33.1-48 0.4-0.6 1.3-1.6 1.4-2l-6.4-127c0-0.8-0.7-1.5-1.5-1.5h-81.7c-0.8 0-1.5 0.7-1.5 1.5v0.3l-6.6 127.1z" fill="#333336" /><path d="M802.4 739.7h-47.6c-23.2 0-42-18.8-42-42V335.6h131.6v362.1c0 23.2-18.8 42-42 42z" fill="#FFD632" /><path d="M802.4 745.2h-47.6c-26.2 0-47.5-21.3-47.5-47.5V330.1h142.6v367.6c0 26.2-21.3 47.5-47.5 47.5z m-84.1-404.1v356.6c0 20.1 16.4 36.5 36.5 36.5h47.6c20.1 0 36.5-16.4 36.5-36.5V341.1H718.3z" fill="#333336" /><path d="M857.4 264.3c0-110.9-35.3-146.6-78.8-146.6s-78.8 35.7-78.8 146.6v157.8c0 33.5 27.2 60.7 60.7 60.7h36.2c33.5 0 60.7-27.2 60.7-60.7V264.3z" fill="#68A240" /><path d="M796.7 488.3h-36.2c-36.5 0-66.2-29.7-66.2-66.2V264.3c0-52.8 8-92.4 23.9-117.8 14.2-22.7 34.5-34.3 60.4-34.3s46.1 11.5 60.4 34.3c15.9 25.4 23.9 65 23.9 117.8v157.8c0 36.5-29.7 66.2-66.2 66.2z m-18.1-365.1c-21.8 0-38.9 9.8-51 29.1-14.8 23.6-22.2 61.2-22.2 112v157.8c0 30.4 24.8 55.2 55.2 55.2h36.2c30.4 0 55.2-24.8 55.2-55.2V264.3c0-50.7-7.5-88.4-22.2-112-12.2-19.3-29.4-29.1-51.2-29.1z" fill="#333336" /><path d="M778.6 791.1m-14.3 0a14.3 14.3 0 1 0 28.6 0 14.3 14.3 0 1 0-28.6 0Z" fill="#F2F0E7" /><path d="M778.6 810.9c-10.9 0-19.8-8.9-19.8-19.8s8.9-19.8 19.8-19.8 19.8 8.9 19.8 19.8-8.9 19.8-19.8 19.8z m0-28.6c-4.9 0-8.8 3.9-8.8 8.8s3.9 8.8 8.8 8.8 8.8-3.9 8.8-8.8-3.9-8.8-8.8-8.8z" fill="#333336" /><path d="M773.1 805.4h11v97.5h-11z" fill="#333336" /><path d="M778.6 421.7c-3.3 0-6-2.7-6-6V194.9c0-3.3 2.7-6 6-6s6 2.7 6 6v220.8c0 3.3-2.7 6-6 6z" fill="#333336" /></svg>